<svg xmlns="http://www.w3.org/2000/svg" xmlns:xlink="http://www.w3.org/1999/xlink" width="150" height="150" viewBox="0 0 150 150">
  <defs>
    <clipPath id="clip-path">
      <path id="Trazado_1031300" data-name="Trazado 1031300" d="M2.981,75A72.02,72.02,0,1,1,75,147.021,72.1,72.1,0,0,1,2.981,75M75,0a75,75,0,1,0,75,75A75.084,75.084,0,0,0,75,0Z" fill="#19538d"/>
    </clipPath>
    <clipPath id="clip-path-2">
      <path id="Trazado_1031301" data-name="Trazado 1031301" d="M32.934,102.037l0,0,0,0Z" transform="translate(-32.926 -102.034)" fill="#19538d"/>
    </clipPath>
    <clipPath id="clip-path-3">
      <path id="Trazado_1031302" data-name="Trazado 1031302" d="M13.892,29.25v.042l.125-.163Z" transform="translate(-13.892 -29.128)" fill="#19538d"/>
    </clipPath>
    <clipPath id="clip-path-4">
      <path id="Trazado_1031303" data-name="Trazado 1031303" d="M5.944,60.765,5.938,60.7v0a.2.2,0,0,0,.006.065" transform="translate(-5.937 -60.7)" fill="#19538d"/>
    </clipPath>
    <clipPath id="clip-path-5">
      <path id="Trazado_1031304" data-name="Trazado 1031304" d="M107.924,54.346h0v0Z" transform="translate(-107.924 -54.311)" fill="#19538d"/>
    </clipPath>
    <clipPath id="clip-path-6">
      <path id="Trazado_1031305" data-name="Trazado 1031305" d="M9,42.934v0l.015-.054Z" transform="translate(-9.002 -42.882)" fill="#19538d"/>
    </clipPath>
    <clipPath id="clip-path-7">
      <path id="Trazado_1031306" data-name="Trazado 1031306" d="M70.4,8.867l-.04-.015-.008,0c.015,0,.031.012.048.017" transform="translate(-70.348 -8.85)" fill="#19538d"/>
    </clipPath>
    <clipPath id="clip-path-8">
      <path id="Trazado_1031307" data-name="Trazado 1031307" d="M17.484,26.32v0l0,0Z" transform="translate(-17.484 -26.318)" fill="#19538d"/>
    </clipPath>
    <clipPath id="clip-path-9">
      <path id="Trazado_1031308" data-name="Trazado 1031308" d="M14.728,28.076a.785.785,0,0,0-.089.123l.052-.066.038-.057Z" transform="translate(-14.639 -28.076)" fill="#19538d"/>
    </clipPath>
    <clipPath id="clip-path-10">
      <path id="Trazado_1031309" data-name="Trazado 1031309" d="M15.312,102.9l-.01-.018ZM89.276,9.745l-.027-.008.027.008M82.621,136.423l-.025-.133.118.322Zm-38.352-6.23.052.025-.008.018Zm-1.327-.651-.019-.012.028.014Zm-.672-.234.016-.016-.006.019Zm-.454-.217.009-.01.113.053-.006.013Zm-1.986.363.3-.512-.189.485-.163.163Zm1.631-.534,0,0,.009.005,0,0Zm63.889-.282-.292-.522.309.387v.154Zm-66.429-.667.251-.335-.34.561Zm-1.7-.588.078-.115-.208.451-.009.01Zm70.212-.85,0-.012.057.085ZM34.08,124.707l.285-.283-.437.586Zm38.379,5.239a57.792,57.792,0,0,0,32.007-9.988l3.678,5.258-.137.1.438.657-.429-.447-.083-.153-.04.026,0,0-.613.409v0l-1.477.94-.006,0-2.13,1.27a63.934,63.934,0,0,1-20.408,7.364l-.349.061.155.776-.31-.749.133.779-.3-.749-.666.066-.466.111-.059,0-.418.074.082.785-.138-.5v-.273l-.076.006v0l-.353.054v-.006l-.864.115a.85.85,0,0,0-.109.006l-2.729.266c-.039,0-.071.009-.045,0l-1.437.1.138.775-.14-.781-.586.027-.048,0-2.23.056Zm-42.223-8.808-.279-.238c-1.111-.952-2.2-1.951-3.251-2.98l4.557-4.533A57.933,57.933,0,0,0,60.97,128.924l-1.114,6.334a64.134,64.134,0,0,1-12.679-3.78l-.357-.149-.124-.123-.533-.159-.341.713.12-.515.164-.164-.1-.089,0-.014-.175-.147-.281-.061-.353-.224-.4-.111v0l-.078-.035h0l-.387-.178-.392-.257h-.114l-.376-.239-.31-.083h0l-1.159-.594v0l-.449-.239h0l-.234-.2-.3-.1h0l-.715-.4c-.022-.012-.044-.025-.072-.039h0l-.728-.42h0l-.238-.141,0,.005-.1-.059-.016-.01h0l-.64-.383a1.267,1.267,0,0,0-.149-.092L37,126.148l0,0-.036-.014-.446.635.372-.7-.248-.162-.462.641.367-.7-1.168-.79-.469.636.36-.709-.369-.26-.019-.012-.106-.074-.468.634.36-.713-.268-.189-.005.005-.745-.551-.005.006-.365-.282h0l-.009-.006a.737.737,0,0,0-.1-.071l-1.049-.85h-.081l.005-.01-.424-.343h0l-.118-.089-.008.01-.109-.1,0,0-1.084-.912h-.1Zm-13.041-15-.013-.03h0a.3.3,0,0,1,.016.036Zm-2.956-2.978.243-.132-.41.321h-.027Zm-.336-1.693h.023l-.2.132Zm118.083-3.106-.341-.171.294.081.115.115Zm.243-1.54.259.045.111.112Zm.19-1.13-.1-.1.347.16Zm.26-.684-.26-.173.509.23Zm.431-.424.29.03.2.133Zm.15-.413.369.094.128.129Zm1.15-.9.005,0c-.009.023-.019.047-.031.071Zm-.277-1.668.028,0h-.017ZM7.589,84.32l.176-.035-.388.151H7.356Zm.4-.738h.277l-.607.151Zm-.032-.151H8.25l-.626.1Zm.049-.419-.275.137-.171.034Zm105.309,29.551a57.937,57.937,0,0,0,15.59-29.68L135.237,84c-.266,1.4-.581,2.795-.936,4.16l-.365,1.336.762.215-.8-.081-.047.163.744.274L134.139,90l-.2-.163-.032.047-.059-.03-.035.1h-.006l-.5,1.649.736.287-.781-.147-.188.568.005,0-.123.349h0l-.247.709h0l-.172.5-.009,0-.586,1.551.036.016-.087.135h-.006l.005,0-.393.784v.168l-.209.338v.166l-.075.149v.058l-.012,0-.144.172v.158l-.141.164v.16l-.155.348h0l-.459,1,.709.348-.79-.175-.476.985a64.463,64.463,0,0,1-11.909,16.741ZM7.426,81.359h.431l-.579.047Zm-.832-8.424.629-.1-.216.109Zm0-.162.788-.113v-.109l6.429.01a57.8,57.8,0,0,0,10.043,31.988l-5.257,3.69-.273-.4-.654.442.579-.555-.206-.308-.087-.131v-.006l-.733-1.133,0,0-.088-.15.006.009-.547-.887V105.1l-.129-.2h0l-.156-.27a.177.177,0,0,0-.023-.036l0,.006-.969-1.7.006.014-.047-.084.019.031-.145-.268-.173-.446L14.829,102l-.222-.557-.141-.142-.1-.186-.741-1.505-.005,0-.079-.08-.234.233-.391.19.645-.481-.069-.142v-.154l-.219-.317a64.457,64.457,0,0,1-3.666-10.1c-.19-.7-.37-1.414-.538-2.134l-.23-1.022-.771.169.74-.312-.075-.35H8.722L8.7,85.082l-.737.2.732-.36-.2-1.027-.025,0-.008-.014-.745.149.75-.281-.04-.213h0l-.014-.11-.127.017.115-.018,0-.034.006,0H8.392l-.056-.362L8.289,82.9l.023-.009-.026.005-.01-.022-.741.156.738-.3-.079-.543-.776.138.755-.278L8.013,81H8.008l-.016-.163-.8.016.779-.146L7.916,80.3h0L7.58,77.041l-.8-.034.781-.11-.118-1.922v-.1l-.036-.356-.18.044L6.64,74.55l.784-.147-.036-1.446-.071-.141.066-.01L7.3,72.792l-.021.008ZM8.518,56.047h.188v.047Zm.1-.391.088,0v.018Zm.729-.83-.463-.178.516.065.114.115Zm.2-3.137-.08-.036.286.072Zm1.358-.923.013-.036-.017.052,0-.016m119.04,20.629a57.82,57.82,0,0,0-9.931-32.029l5.265-3.668A63.73,63.73,0,0,1,135.368,60.46l.085.489.778-.128-.754.27.459,3.227,0-.035.107.833-.017,0,.022.127h-.005l.089,1.265.2,2.64-.012,0,.056,2.276ZM18.917,35.046l-.006.008Zm-.941-.336-.166-.167.327.243Zm.672.025-.314-.233.189.1.151.15Zm4.2-4.775-.012.014Zm2.9-3.174,4.542,4.55A57.935,57.935,0,0,0,14.809,61.07l-6.337-1.1c.233-1.249.506-2.5.811-3.728l-.557-.14.605-.052.292-1.22H9.559l.072-.087.027.005h0l.016,0,.268-.947h0l.31-1.038c.014-.035.026-.069.039-.111l.822-2.466,0-.009.233-.643h0l0-.005A.6.6,0,0,0,11.4,49.4l.225-.583a.314.314,0,0,0,.014-.052.514.514,0,0,0,.048-.123c.031-.061.04-.083.034-.083l.3-.759h0l.625-1.492c.017-.036.03-.063.028-.063l0,.005.194-.442c.021-.043.036-.079.044-.1l.127-.286-.711-.341.766.219.808-1.714c.023-.043.04-.079.053-.1l.244-.5a.474.474,0,0,0,.035-.067l-.006.009.242-.472-.669-.423.736.292.362-.691h0l.16-.3h0l.153-.279h0l.18-.326h0l.149-.264h0l.294-.521h0l.248-.422h0l.166-.273h0l.166-.287h0l.106-.173.008-.016.244-.4h0l.084-.132-.663-.425.737.3.168-.266h0l.521-.821.008-.013.6-.913c.006-.013.017-.026.025-.039l0,0,.684-1,.371-.45.64-.948-.025.03.847-1.137-.005,0,.777-.979-.005,0,.04-.047a.341.341,0,0,0,.058-.07l-.013.014.257-.314h0l.984-1.174.477-.554c.043-.045.053-.066.052-.059l.41-.463a.389.389,0,0,0,.045-.049l0,0,.5-.554h0l.854-.909-.538-.578.49.376.089.131.044-.03.006.005ZM82.982,14.863l1.135-6.328c.753.145,1.5.3,2.242.472l.134.031.074.072,1,.188c.043.01.091.021.062.006a.874.874,0,0,0,.171.05l.158.041a.6.6,0,0,0,.093.021l0,0a.7.7,0,0,0,.113.03l1,.269v0l.078.023a.424.424,0,0,1-.076-.03h0l.11.04.256.076h0l.075.023v0l1.064.316A64.661,64.661,0,0,1,117.206,25.99l-4.57,4.516A57.935,57.935,0,0,0,82.982,14.863m-25.4-6.368-.049-.328.238.7Zm.114-.366.08.264v.444Zm.489-.032-.013-.071.035.094Zm1.685-.613V7.47l.044.208Zm11.216-.1v6.429a57.807,57.807,0,0,0-31.967,10.1l-3.7-5.251A64.008,64.008,0,0,1,55.754,9.405l1.9-.458h0l.125-.052.01.019,0-.016,1.161-.229h0l.352-.071v0l3.349-.57V8.023l3.227-.362.022,0L70.255,7.4l.041.017Zm-8.4-.685V6.636l.1.575Zm7.219-.874L69.74,5.9l.1.217-.017.5-.111-.786-.621.026v0l-2.625.137-.98.111-.074.005-1.245.133-.031,0-1.1.138a.335.335,0,0,0-.081.018l-.306.036h-.012l-.561.083-.058-.028-.181.056-.019-.005-1.247.219,0,0-1.58.29v0l-.235.041h-.014l-1.433.313L57.231,7.4l-1.87.481a65.58,65.58,0,0,0-21.5,9.942l-.645.455,4.616,6.55a58.607,58.607,0,0,0-6.421,5.4l-5.1-5.112-.617-.5-1.5,1.522h0l-.019.023.006.005-.008.009.557.542-.639-.475.542.578-.649-.463a.611.611,0,0,0-.074.081l-.332.349h0L22.465,28h0l-.856.976h0l-.331.393h0l-.745.9.6.507-.687-.4-.118.145-.019.025-.176.23c-.022.023-.045.047-.065.071l-.07.092h0l-.118.147,0,0-.23.23-.462.658,0,0-.922,1.239.64.4.025.025-.679-.4-.371.515a.594.594,0,0,0-.062.089l-.525.766,0,0-.036.045-.468.683h0l-.14.207c-.013.019-.026.043-.044.071l-.118.167.026-.035-.071.124h0l-.079.115h0l-.008.016.009,0-.031.041-.012-.005-.08.123h0l-.569.9h0l-.766,1.262a.294.294,0,0,0-.034.056l-.216.382a.948.948,0,0,0-.1.16h0l-.274.477a.854.854,0,0,0-.08.15L13.652,40.6h0l-.2.378.679.4-.741-.285-.917,1.808h0l-.362.744.707.353-.771-.217-.1.222a1,1,0,0,0-.044.1l-.2.433h0l-.537,1.2c-.01.025-.021.049-.032.079l-.178.416c-.009.022-.018.043-.025.062l0,.005h0l-.325.784c-.008.017-.014.035-.021.05l-.166.423a.784.784,0,0,0-.043.1l-.277.714.737.281-.785-.153-.334.905a.234.234,0,0,0-.017.044l-.259.731h0l-.074.206h.005L9.164,51h0l-.005.027.74.251-.777-.156-.169.521H8.96l-.128.38h0l-.653,2.2.747.26-.788-.11-.162.595h0l-.039.142h0l-.054.2.766.191H7.839l-.087.349c-.379,1.517-.7,3.07-.974,4.616l-.137.779,7.89,1.372a58.543,58.543,0,0,0-.718,8.36L5.8,70.97l0,1.569.789.016-.788.122.019.969.788-.016-.785.147.009.3.79.018-.785.146.031.738,0,.083.8.067-.784.113.047.838c0,.03,0,.052,0,.052v-.008l.336,3.691.79-.037-.773.175.028.238h.005l.2,1.486h.005l.041.316h0l.049.309h.009l.039.079.256-.125.475-.075-.757.261.081.482h0l.048.3h0l.059.362h0l.118.653h0l.069.347-.006,0,.056,1h.133l.065.246.766-.189-.737.316L7.535,87q.258,1.1.551,2.182a66.074,66.074,0,0,0,3.757,10.349l.718-.332-.393.317h-.251l.035.172-.026.021.215.457.053.26.23.23.3-.3.314-.153-.634.5.338.684v.6h.3l.67,1.269.012.025.115.178h0l.021.052,0,0,.106.2.147.847h.327l.481.826v.016l1.147,1.858h0l.685,1.06h0l.182.281.648-.45-.569.568q.363.541.74,1.075l.454.647,6.558-4.605a58.348,58.348,0,0,0,5.386,6.429l-5.681,5.651.557.561c1.249,1.257,2.562,2.475,3.908,3.625l.3.26.528-.588-.428.671,1.207.992v0l2.359,1.809c.039.031.1.07.1.061l.4.3.028.021.41.29.467-.635-.318.634-.056.056.264.2.01.005.954.649a.653.653,0,0,0,.092.062l.76.5a.505.505,0,0,0,.052.035l.657.419a.1.1,0,0,0,.025.017l.028.017h0l.19.116v.005l.9.548v0l.3.181h0l.169.1v0l1.029.6.009,0a.987.987,0,0,0,.11.065l.248.141,0-.006.035.012.006-.013.075.059,0,.009,1.038.573.084.035,0-.006.989.6.233.047h0l1.324.647,1.3.676,1.756.687a65.662,65.662,0,0,0,13.788,4.018l.777.137,1.386-7.89a58.318,58.318,0,0,0,8.357.735l-.028,8.005,1.135.014,1.372-.017h.115l1.538-.059a1.139,1.139,0,0,0,.128-.005l.3-.016a.7.7,0,0,0,.106-.007l.983-.061.08.005.771-.071h0l2.9-.3v-.007l.04-.013-.123-.764.142.5v.27l.069,0,.022,0,.092-.021h0l.4-.049h.07l.363-.07h.079l.085-.018.054.028,1.038-.184.257-.078.009.019.679-.118a65.478,65.478,0,0,0,20.892-7.542l.193-.11-.392-.684.529.607.414-.241h0l.113-.062.053,0,.092-.091-.006-.012.034-.034-.052-.053.093-.022.043.053,2.37-1.474,0-.005.653-.426,0,0,.079-.053a1.127,1.127,0,0,0,.142-.089l-.4-.684.519.577.005.012h0l.005.005,1.425-.967-4.6-6.584a58.33,58.33,0,0,0,6.439-5.375l5.642,5.692.561-.556a66.083,66.083,0,0,0,12.771-17.723c.138-.283.277-.566.454-.949l.748-1.628-.027-.01.066-.1h.008l.149-.175v-.142l.231-.4.163-.557-.005,0,.189-.273.058-.314.131-.155.49-1.451h0l.039-.1-.01,0,.134-.335h0l.012-.036-.025-.006.158-.159.475-1.565-.745-.26.788.127.327-.811.86-3.212c.433-1.659.8-3.364,1.1-5.062l.138-.776-7.887-1.4a58.626,58.626,0,0,0,.749-8.354l8.021.041-.394-8.4-.151,0-.026-.026-.614.039.773-.15-.185-1.814-.036-.034v-.028l-.4-2.429a65.359,65.359,0,0,0-10.789-26.032l-.451-.648L119.1,38.08a58.581,58.581,0,0,0-5.363-6.447l5.7-5.633-.555-.561A66.269,66.269,0,0,0,91.133,8.646l-2.1-.6a.592.592,0,0,0-.062-.013l-.026-.006L88.3,7.857a1.043,1.043,0,0,0-.1-.028L86.719,7.47q-1.536-.353-3.1-.634L82.842,6.7l-1.413,7.888a58.4,58.4,0,0,0-8.764-.777V5.8Z" transform="translate(-5.798 -5.797)" fill="#19538d"/>
    </clipPath>
    <clipPath id="clip-path-11">
      <rect id="Rectángulo_467114" data-name="Rectángulo 467114" width="82" height="78.807" fill="#fff"/>
    </clipPath>
  </defs>
  <g id="Grupo_1180455" data-name="Grupo 1180455" transform="translate(-1274.059 -7095)">
    <g id="Grupo_1180190" data-name="Grupo 1180190" transform="translate(1274.059 7095)">
      <g id="Grupo_1180171" data-name="Grupo 1180171" transform="translate(0 0)">
        <g id="Grupo_1180170" data-name="Grupo 1180170" clip-path="url(#clip-path)">
          <path id="Trazado_1031398" data-name="Trazado 1031398" d="M7.072,7.072H219.2V219.2H7.071Z" transform="translate(-85.001 75) rotate(-45)" fill="#19538d"/>
        </g>
      </g>
      <g id="Grupo_1180173" data-name="Grupo 1180173" transform="translate(43.405 131.917)">
        <g id="Grupo_1180172" data-name="Grupo 1180172" clip-path="url(#clip-path-2)">
          <rect id="Rectángulo_458951" data-name="Rectángulo 458951" width="0.008" height="0.008" transform="translate(-0.002 0.002) rotate(-45)" fill="#19538d"/>
        </g>
      </g>
      <g id="Grupo_1180175" data-name="Grupo 1180175" transform="translate(21.38 38.393)">
        <g id="Grupo_1180174" data-name="Grupo 1180174" clip-path="url(#clip-path-3)">
          <rect id="Rectángulo_458952" data-name="Rectángulo 458952" width="0.203" height="0.203" transform="matrix(0.707, -0.707, 0.707, 0.707, -0.082, 0.082)" fill="#19538d"/>
        </g>
      </g>
      <g id="Grupo_1180177" data-name="Grupo 1180177" transform="translate(9.138 80.015)">
        <g id="Grupo_1180176" data-name="Grupo 1180176" clip-path="url(#clip-path-4)">
          <rect id="Rectángulo_458953" data-name="Rectángulo 458953" width="0.051" height="0.051" transform="translate(-0.033 0.032) rotate(-45.002)" fill="#19538d"/>
        </g>
      </g>
      <g id="Grupo_1180179" data-name="Grupo 1180179" transform="translate(140.98 71.595)">
        <g id="Grupo_1180178" data-name="Grupo 1180178" clip-path="url(#clip-path-5)">
          <path id="Trazado_1031310" data-name="Trazado 1031310" d="M0,0,.027,0l0,.022L0,.027Z" transform="translate(-0.018 0.018) rotate(-45.009)" fill="#19538d"/>
        </g>
      </g>
      <g id="Grupo_1180181" data-name="Grupo 1180181" transform="translate(13.854 56.528)">
        <g id="Grupo_1180180" data-name="Grupo 1180180" clip-path="url(#clip-path-6)">
          <rect id="Rectángulo_458955" data-name="Rectángulo 458955" width="0.049" height="0.049" transform="translate(-0.027 0.027) rotate(-44.999)" fill="#19538d"/>
        </g>
      </g>
      <g id="Grupo_1180183" data-name="Grupo 1180183" transform="translate(92.734 13.62)">
        <g id="Grupo_1180182" data-name="Grupo 1180182" clip-path="url(#clip-path-7)">
          <rect id="Rectángulo_458956" data-name="Rectángulo 458956" width="0.046" height="0.046" transform="matrix(0.707, -0.707, 0.707, 0.707, -0.008, 0.008)" fill="#19538d"/>
        </g>
      </g>
      <g id="Grupo_1180185" data-name="Grupo 1180185" transform="translate(26.908 34.695)">
        <g id="Grupo_1180184" data-name="Grupo 1180184" clip-path="url(#clip-path-8)">
          <rect id="Rectángulo_458957" data-name="Rectángulo 458957" width="0.003" height="0.003" transform="matrix(0.706, -0.708, 0.708, 0.706, -0.002, 0.002)" fill="#19538d"/>
        </g>
      </g>
      <g id="Grupo_1180187" data-name="Grupo 1180187" transform="translate(22.53 37.008)">
        <g id="Grupo_1180186" data-name="Grupo 1180186" clip-path="url(#clip-path-9)">
          <rect id="Rectángulo_458958" data-name="Rectángulo 458958" width="0.151" height="0.151" transform="translate(-0.062 0.062) rotate(-45)" fill="#19538d"/>
        </g>
      </g>
      <g id="Grupo_1180189" data-name="Grupo 1180189" transform="translate(8.923 8.922)">
        <g id="Grupo_1180188" data-name="Grupo 1180188" clip-path="url(#clip-path-10)">
          <path id="Trazado_1031399" data-name="Trazado 1031399" d="M7.072,7.072h186.9v186.9H7.071Z" transform="translate(-76.08 66.079) rotate(-45)" fill="#19538d"/>
        </g>
      </g>
    </g>
    <g id="Grupo_1189511" data-name="Grupo 1189511" transform="translate(1308.162 7134.615)">
      <g id="Grupo_1180948" data-name="Grupo 1180948" clip-path="url(#clip-path-11)">
        <path id="Trazado_1032998" data-name="Trazado 1032998" d="M37.671,52.224c1.881.453,3.64.094,5.651.224a3.864,3.864,0,0,1,4.106-2.59,3.786,3.786,0,0,1,.361,7.449A3.833,3.833,0,0,1,43.4,54.893l-4.055-.085c.458,1.583,1.79,2.543.576,3.742L36.06,62.368a1.159,1.159,0,0,1-1.382.328l-5.068-2.655-2.392.941-.936,3.873,63.174,0,0-42.237H44.3c-.88-.021-1.322-.445-1.358-1.15a1.225,1.225,0,0,1,1.181-1.289l45.338.02a2.447,2.447,0,0,1,2.39,2.477l-.007,42.2a2.375,2.375,0,0,1-2.3,2.366l-67.028,0a2.365,2.365,0,0,1-2.3-2.37l-.01-42.192a2.414,2.414,0,0,1,2.371-2.457L38.5,20.181a1.164,1.164,0,0,1,1.184,1.285,1.177,1.177,0,0,1-1.331,1.156l-12.1,0,1.006,3.908a10.61,10.61,0,0,1,2.208.936c2.507-.956,5.462-3.571,6.52-2.464l4.388,4.6c.291.9-.638,1.949-1.1,2.921a17.032,17.032,0,0,0,4.129.1,3.7,3.7,0,0,1,4.222-2.474,3.783,3.783,0,0,1-.064,7.458,3.91,3.91,0,0,1-4.227-2.553l-5.6.06a8.809,8.809,0,0,0,.96,2.855l5.739,1.956c.754.257.542,1.71.444,2.559l4.95.073a3.81,3.81,0,0,1,4.252-2.533,3.725,3.725,0,0,1,3.14,3.727,3.787,3.787,0,0,1-7.377,1.2l-4.9.012c-.045.768.237,2.08-.39,2.557l-5.789,1.947Zm-.753-4.7,5.593-1.79-.038-4.055L36.9,39.917l-1.851-4.405,2.734-5.348-2.808-2.772-5.386,2.7-4.327-1.8-1.589-5.609c-.067-.236-1.048-.12-1.048.152l0,8.575a12.378,12.378,0,0,1-.03,24.635l.043,8.8,1.047.015,1.547-5.68,4.372-1.8,5.239,2.7,2.928-2.938-2.724-5.177Zm9.864-15.036a1.33,1.33,0,0,0-1.141,1.695,1.369,1.369,0,1,0,1.141-1.695M22.618,50.761l.071,2.837a9.946,9.946,0,0,0-.017-19.73,9.617,9.617,0,0,0,.034,2.862,7.133,7.133,0,0,1-.088,14.032m.046-2.53a4.678,4.678,0,0,0-.036-9.024Zm30.372-5.812a1.344,1.344,0,0,0-.921,1.691,1.407,1.407,0,0,0,1.656.96,1.389,1.389,0,0,0,.968-1.782,1.356,1.356,0,0,0-1.7-.87m-6.25,9.831a1.394,1.394,0,0,0-1.158,1.7,1.41,1.41,0,0,0,1.545,1.019,1.369,1.369,0,0,0,1.141-1.651,1.331,1.331,0,0,0-1.528-1.07" transform="translate(-15.033 -15.006)" fill="#fff"/>
        <path id="Trazado_1032999" data-name="Trazado 1032999" d="M66.246,62.263l-13.3.019,3.42,8.9,3.874.019a1.206,1.206,0,0,1,1.37,1.157l.022,5.147A1.243,1.243,0,0,1,60.4,78.8l-38.805,0a1.169,1.169,0,0,1-1.2-1.108l0-5.344A1.21,1.21,0,0,1,21.76,71.2l3.875-.017L29.062,62.3,4.617,62.287A4.419,4.419,0,0,1,0,57.818L.017,4.328A4.367,4.367,0,0,1,4.419,0H77.579a4.365,4.365,0,0,1,4.4,4.329L82,57.819a4.435,4.435,0,0,1-4.592,4.467l-5.414,0c-.77,0-1.3-.316-1.4-1.019a1.177,1.177,0,0,1,1.162-1.38l5.654-.008a2.113,2.113,0,0,0,2.208-2.118L79.6,4.388a2.019,2.019,0,0,0-2.26-1.958H4.655A2.018,2.018,0,0,0,2.4,4.388L2.386,57.765A2.092,2.092,0,0,0,4.653,59.88h61.4a1.156,1.156,0,0,1,1.258.981,1.127,1.127,0,0,1-1.07,1.4m-7.106,14.1a6.887,6.887,0,0,0-.087-2.734l-22.044,0a1.244,1.244,0,0,1-1.272-1.291,1.284,1.284,0,0,1,1.176-1.154h16.88l-3.461-8.9-18.659,0L28.211,71.17l3.043.025a1.239,1.239,0,0,1,1.286,1.16,1.2,1.2,0,0,1-1.126,1.251l-8.578.058.016,2.7Z" fill="#fff"/>
        <path id="Trazado_1033000" data-name="Trazado 1033000" d="M231.4,63l-14.2.078a1.177,1.177,0,0,1-1.279-.976,1.1,1.1,0,0,1,1.035-1.363l13.828-.036a1.412,1.412,0,0,1,1.359.795c.19.4.02,1.5-.746,1.5" transform="translate(-160.577 -45.146)" fill="#fff"/>
        <path id="Trazado_1033001" data-name="Trazado 1033001" d="M231.039,123.993l-13.808-.007a1.276,1.276,0,0,1-1.3-.942c-.1-.4.136-1.388.8-1.388l14.792,0c.527,0,.795.995.675,1.346a1.314,1.314,0,0,1-1.16.989" transform="translate(-160.577 -90.479)" fill="#fff"/>
        <path id="Trazado_1033002" data-name="Trazado 1033002" d="M187.249,83.287,176.48,83.23c-.652,0-.889-.743-.863-1.211.022-.4.271-1.072.9-1.075l10.726-.05a1.259,1.259,0,0,1,1.414,1.132c.027.806-.566,1.265-1.412,1.26" transform="translate(-130.609 -60.163)" fill="#fff"/>
        <path id="Trazado_1033003" data-name="Trazado 1033003" d="M187.582,144.037l-10.854.033a1.232,1.232,0,0,1-1.1-.969c-.134-.512.154-1.39.865-1.391l11.222-.012c.593,0,.946.754.935,1.159-.009.369-.369,1.177-1.066,1.179" transform="translate(-130.593 -105.384)" fill="#fff"/>
        <path id="Trazado_1033004" data-name="Trazado 1033004" d="M185.766,103.564l-8.741.052a1.323,1.323,0,0,1-1.35-.893c-.163-.612.121-1.519.9-1.519l9.31-.009a1.133,1.133,0,0,1,1.007,1.079,1.185,1.185,0,0,1-1.121,1.291" transform="translate(-130.621 -75.261)" fill="#fff"/>
        <path id="Trazado_1033005" data-name="Trazado 1033005" d="M185.814,42.934l-9.083.026a1.154,1.154,0,0,1-1.12-1.158c0-.759.539-1.194,1.37-1.193l8.718.017a1.148,1.148,0,0,1,1.17,1.007,1.169,1.169,0,0,1-1.055,1.3" transform="translate(-130.606 -30.202)" fill="#fff"/>
        <path id="Trazado_1033006" data-name="Trazado 1033006" d="M181.867,63.077l-4.887.01a1.2,1.2,0,1,1,0-2.376l4.883.005a1.138,1.138,0,0,1,1.286,1.164,1.164,1.164,0,0,1-1.284,1.2" transform="translate(-130.609 -45.152)" fill="#fff"/>
        <path id="Trazado_1033007" data-name="Trazado 1033007" d="M181.947,123.763l-4.979.031a1.316,1.316,0,0,1-1.277-.721c-.22-.467-.109-1.551.538-1.566l5.364-.121c.786-.018,1.408.276,1.524,1a1.178,1.178,0,0,1-1.17,1.377" transform="translate(-130.588 -90.276)" fill="#fff"/>
        <path id="Trazado_1033008" data-name="Trazado 1033008" d="M242.179,82.175c.028,1.425-2.031,1.555-4.092,1.141a1.025,1.025,0,0,1-.7-1.11c.031-.45.354-1.1.958-1.1l2.949.015a.964.964,0,0,1,.883,1.055" transform="translate(-176.55 -60.32)" fill="#fff"/>
        <path id="Trazado_1033009" data-name="Trazado 1033009" d="M240.993,143.917l-2.659-.052c-.69-.013-1.026-.855-.948-1.356a1.275,1.275,0,0,1,1.414-.983l2.073-.011a1.184,1.184,0,0,1,1.284.974,1.151,1.151,0,0,1-1.164,1.427" transform="translate(-176.541 -105.249)" fill="#fff"/>
      </g>
    </g>
  </g>
</svg>
