<svg xmlns="http://www.w3.org/2000/svg" xmlns:xlink="http://www.w3.org/1999/xlink" width="128" height="128" viewBox="0 0 128 128">
  <defs>
    <clipPath id="clip-path">
      <path id="Trazado_1031300" data-name="Trazado 1031300" d="M2.543,64A61.457,61.457,0,1,1,64,125.457,61.527,61.527,0,0,1,2.543,64M64,0a64,64,0,1,0,64,64A64.071,64.071,0,0,0,64,0Z" fill="#19538d"/>
    </clipPath>
    <clipPath id="clip-path-2">
      <path id="Trazado_1031301" data-name="Trazado 1031301" d="M32.933,102.037h-.007Z" transform="translate(-32.926 -102.034)" fill="#19538d"/>
    </clipPath>
    <clipPath id="clip-path-3">
      <path id="Trazado_1031302" data-name="Trazado 1031302" d="M13.892,29.232v.035L14,29.128Z" transform="translate(-13.892 -29.128)" fill="#19538d"/>
    </clipPath>
    <clipPath id="clip-path-4">
      <path id="Trazado_1031303" data-name="Trazado 1031303" d="M5.943,60.755,5.938,60.7h0a.174.174,0,0,0,.005.055" transform="translate(-5.937 -60.7)" fill="#19538d"/>
    </clipPath>
    <clipPath id="clip-path-5">
      <path id="Trazado_1031304" data-name="Trazado 1031304" d="M107.924,54.341h0v0Z" transform="translate(-107.924 -54.311)" fill="#19538d"/>
    </clipPath>
    <clipPath id="clip-path-6">
      <path id="Trazado_1031305" data-name="Trazado 1031305" d="M9,42.927H9l.013-.046Z" transform="translate(-9.002 -42.882)" fill="#19538d"/>
    </clipPath>
    <clipPath id="clip-path-7">
      <path id="Trazado_1031306" data-name="Trazado 1031306" d="M70.389,8.864l-.034-.013h-.007c.013,0,.026.011.041.014" transform="translate(-70.348 -8.85)" fill="#19538d"/>
    </clipPath>
    <clipPath id="clip-path-8">
      <path id="Trazado_1031307" data-name="Trazado 1031307" d="M17.484,26.319h0v0Z" transform="translate(-17.484 -26.318)" fill="#19538d"/>
    </clipPath>
    <clipPath id="clip-path-9">
      <path id="Trazado_1031308" data-name="Trazado 1031308" d="M14.715,28.076a.67.67,0,0,0-.076.105l.045-.056.033-.049Z" transform="translate(-14.639 -28.076)" fill="#19538d"/>
    </clipPath>
    <clipPath id="clip-path-10">
      <path id="Trazado_1031309" data-name="Trazado 1031309" d="M13.917,88.659l-.009-.015ZM77.033,9.166,77.01,9.16l.023.007m-5.679,108.1-.021-.114.1.275Zm-32.727-5.316.044.021-.007.015Zm-1.132-.555-.017-.01.024.012Zm-.574-.2.013-.013-.006.017Zm-.387-.185.008-.009.1.045-.006.011Zm-1.7.31.259-.437-.161.414-.139.139Zm1.392-.456,0,0,.008,0,0,0Zm54.519-.241-.249-.446.264.33v.131Zm-56.687-.569.214-.286-.29.479Zm-1.449-.5.066-.1-.178.385-.008.009Zm59.914-.725,0-.01.049.073Zm-62.6-1.558.243-.242-.373.5Zm32.75,4.471A49.316,49.316,0,0,0,90,103.215l3.139,4.487-.117.083.374.561-.366-.382-.071-.13-.034.022,0,0-.523.349v0l-1.26.8-.006,0-1.818,1.084A54.557,54.557,0,0,1,71.9,116.371l-.3.052.132.662-.265-.639.114.664-.259-.639-.568.056-.4.095-.051,0-.356.063.07.67-.118-.424V116.7l-.065.006v0l-.3.046v-.005l-.737.1a.726.726,0,0,0-.093.005l-2.329.227c-.033,0-.061.008-.039,0l-1.226.083.118.661-.119-.667-.5.023-.041,0-1.9.047Zm-36.03-7.516-.238-.2c-.948-.812-1.879-1.665-2.774-2.543l3.889-3.868a49.436,49.436,0,0,0,25.35,13.258l-.95,5.405a54.729,54.729,0,0,1-10.819-3.226l-.3-.127-.106-.1-.455-.136-.291.608.1-.439.14-.14-.089-.076,0-.012-.149-.126-.239-.052-.3-.191-.343-.095v0l-.066-.03h0l-.33-.152-.334-.22h-.1l-.321-.2-.265-.071h0l-.989-.507v0l-.383-.2h0l-.2-.168-.259-.083h0l-.61-.34-.062-.033h0l-.621-.359h0l-.2-.12,0,0-.084-.051-.013-.009h0l-.546-.327a1.078,1.078,0,0,0-.127-.078l-1.139-.714,0,0-.031-.012-.381.542.318-.6-.212-.138-.394.547.313-.6-1-.674-.4.543.307-.6-.315-.222-.017-.01-.09-.063-.4.541.307-.608-.228-.161,0,0-.636-.47,0,.006-.311-.241h0l-.008-.006a.629.629,0,0,0-.082-.061l-.9-.725h-.07l0-.009-.362-.292h0l-.1-.076-.007.009-.093-.084,0,0-.925-.778h-.085ZM15.524,91.42l-.011-.025h0a.261.261,0,0,1,.013.031ZM13,88.878l.207-.113-.35.274h-.023Zm-.287-1.445h.02l-.169.113Zm100.765-2.651-.291-.146.251.07.1.1Zm.207-1.314.221.039.095.1Zm.162-.964-.087-.087.3.137Zm.222-.584-.222-.148.435.2Zm.367-.362.247.025.17.114Zm.128-.352.314.081.109.11Zm.981-.766,0,0c-.008.02-.017.04-.026.061Zm-.236-1.424.024,0h-.014ZM7.326,72.8l.15-.03-.331.129H7.128Zm.342-.63H7.9l-.518.129Zm-.028-.129H7.89l-.534.087Zm.042-.358-.235.117-.146.029ZM97.547,96.9a49.44,49.44,0,0,0,13.3-25.327l5.4.958c-.227,1.193-.5,2.385-.8,3.55l-.311,1.14.65.183-.681-.07-.04.139.635.234-.391-.058-.169-.139-.028.04-.051-.025-.03.083h-.006l-.429,1.407.628.245-.667-.126-.16.484,0,0-.1.3h0l-.211.6h0l-.147.424-.008,0-.5,1.323.031.013-.074.115H113.4l0,0-.335.669v.143l-.179.288v.141l-.064.127v.05l-.01,0-.123.147V84.1l-.12.14v.137l-.132.3h0l-.392.852.6.3-.674-.149-.406.841A55.008,55.008,0,0,1,101.407,100.8ZM7.187,70.277h.367l-.494.04Zm-.71-7.189L7.014,63l-.184.093Zm0-.138.672-.1v-.093l5.486.009a49.324,49.324,0,0,0,8.57,27.3l-4.486,3.148-.233-.345-.558.377.494-.473-.175-.263-.074-.111v-.006l-.626-.967,0,0-.075-.128.006.008-.467-.757v-.018l-.11-.167h0l-.134-.231a.151.151,0,0,0-.02-.031l0,.006-.827-1.454.006.012-.04-.072.017.026-.124-.228-.148-.381-.124-.124-.19-.476-.12-.121-.084-.159-.632-1.285,0,0-.067-.068-.2.2-.333.162.551-.411-.058-.121v-.131l-.187-.27A55,55,0,0,1,9.05,76.6c-.162-.6-.316-1.206-.459-1.821l-.2-.872-.658.145.631-.266-.064-.3H8.293l-.018-.032-.629.171.625-.307L8.1,72.442l-.021,0-.007-.012-.636.127.64-.239-.034-.182h0l-.012-.094-.108.014.1-.015,0-.029.006,0H8.012l-.047-.309-.041-.111.02-.008-.022,0-.009-.019-.632.134.63-.259-.067-.464-.662.118.644-.237-.137-.894h0l-.013-.139-.679.013.664-.125-.051-.347h0l-.286-2.783-.679-.029.667-.094-.1-1.64v-.083l-.031-.3-.153.038-.507-.014.669-.126-.031-1.234-.061-.12.056-.009-.066-.011-.018.007ZM8.119,48.677h.16v.04Zm.085-.333.075,0v.015Zm.622-.708-.4-.152.44.055.1.1ZM9,44.958l-.068-.031.244.062Zm1.159-.788.011-.031-.014.044,0-.013m101.582,17.6a49.34,49.34,0,0,0-8.474-27.331l4.493-3.13a54.383,54.383,0,0,1,8.607,21.13l.073.417.664-.109-.643.231.392,2.753,0-.03.092.711-.014,0,.019.108h0l.076,1.079.171,2.252-.01,0,.047,1.942ZM16.993,30.757l-.006.007Zm-.8-.287-.141-.142.279.207Zm.574.021-.268-.2.161.083.129.128Zm3.584-4.074-.01.012Zm2.477-2.708L26.7,27.59A49.438,49.438,0,0,0,13.488,52.964L8.08,52.022c.2-1.066.431-2.133.692-3.182L8.3,48.722l.516-.044.249-1.041H9.007l.062-.074.023,0h0l.013,0,.228-.808h0l.265-.886c.012-.03.022-.058.033-.095l.7-2.1,0-.008.2-.548h0l0,0A.516.516,0,0,0,10.574,43l.192-.5a.268.268,0,0,0,.012-.044.439.439,0,0,0,.041-.1c.026-.052.034-.071.029-.071l.257-.648h0l.533-1.274c.014-.031.025-.054.024-.054l0,0,.166-.377c.018-.036.031-.067.038-.085l.108-.244-.607-.291.653.186.69-1.462c.02-.036.034-.067.045-.089l.209-.424a.4.4,0,0,0,.03-.057l-.006.008.206-.4-.571-.361.628.249.309-.589h0l.137-.255h0l.13-.238h0l.153-.278h0l.127-.225h0l.251-.445h0l.212-.36h0l.141-.233h0l.141-.245h0l.09-.148.007-.013.209-.345h0l.072-.113-.566-.363.629.258.143-.227h0l.445-.7.007-.011.514-.779c.006-.011.014-.022.021-.033l0,0,.584-.85.317-.384.546-.809-.021.025.723-.97,0,0,.663-.835,0,0,.034-.04a.291.291,0,0,0,.05-.06l-.011.012.22-.268h0l.84-1,.407-.472c.036-.039.045-.056.044-.051l.35-.4a.332.332,0,0,0,.039-.042l0,0L21.6,25h0l.728-.776-.459-.493.418.321.076.111.038-.025.006,0ZM71.662,13.533l.969-5.4c.642.124,1.282.257,1.914.4l.115.026.063.062.855.16c.036.009.077.018.053.006a.746.746,0,0,0,.146.043l.135.035a.513.513,0,0,0,.079.018l0,0a.6.6,0,0,0,.1.025l.853.23v0l.066.02a.362.362,0,0,1-.065-.025h0l.094.034.219.065h0l.064.02v0l.908.269a55.178,55.178,0,0,1,22.637,13.51l-3.9,3.854a49.438,49.438,0,0,0-25.3-13.349M49.987,8.1l-.042-.28.2.6Zm.1-.312.068.225V8.39Zm.417-.028L50.49,7.7l.03.081Zm1.438-.523V7.225l.038.178Zm9.571-.088v5.486a49.329,49.329,0,0,0-27.279,8.619l-3.157-4.481a54.62,54.62,0,0,1,17.353-7.9l1.618-.391h0l.107-.044.009.017,0-.013.991-.2h0l.3-.061v0L54.307,7.7v0l2.753-.309.019,0L60.8,7.163l.035.014Zm-7.167-.585v-.05L54.433,7Zm6.16-.746-.141.07.088.185-.014.425-.095-.671-.53.022v0l-2.24.117-.836.095-.063,0-1.063.114-.026,0L54.64,6.3a.286.286,0,0,0-.07.015l-.262.031H54.3l-.479.071-.05-.024-.154.047-.017,0-1.064.187,0,0-1.349.247v0l-.2.035h-.012l-1.223.267-.066-.011-1.6.411a55.962,55.962,0,0,0-18.347,8.484l-.551.388,3.939,5.59a50.012,50.012,0,0,0-5.479,4.606L23.3,22.278l-.526-.428-1.281,1.3h0l-.017.02.006,0-.007.008.476.462-.545-.405.462.493-.554-.4a.522.522,0,0,0-.063.07l-.284.3h0l-.95,1.042h0l-.731.833h0l-.283.335h0l-.636.768.514.433L18.3,26.77l-.1.124-.017.021-.15.2c-.019.02-.039.04-.055.061l-.06.078h0l-.1.126,0,0-.2.2-.394.562,0,0L16.45,29.2l.546.341.021.021-.579-.344-.317.439a.507.507,0,0,0-.053.076l-.448.653,0,0-.031.039-.4.583h0l-.119.177c-.011.017-.022.036-.038.061l-.1.142.022-.03-.061.106h0l-.067.1h0l-.007.013.008,0-.026.035-.01,0-.068.1h0l-.486.768h0l-.653,1.077a.251.251,0,0,0-.029.047l-.184.326a.809.809,0,0,0-.083.137h0l-.234.407a.729.729,0,0,0-.068.128l-.5.892h0l-.173.322.579.344-.632-.243-.782,1.543h0l-.309.635.6.3-.658-.185-.088.19a.858.858,0,0,0-.038.087l-.169.37h0l-.458,1.022c-.009.021-.018.042-.028.067l-.152.355c-.008.019-.015.036-.021.053l0,0h0l-.277.669c-.007.014-.012.03-.018.043l-.141.361a.668.668,0,0,0-.036.085l-.236.609.629.239-.67-.13-.285.773a.2.2,0,0,0-.014.038l-.221.624h0l-.063.175h0l-.18.516h0l0,.023.631.214-.663-.134-.145.445H8.5l-.109.324h0l-.557,1.879.638.222L7.8,47.253l-.138.508h0l-.033.121h0l-.046.173.653.163h-.7l-.074.3c-.323,1.294-.6,2.62-.831,3.939l-.117.664L13.25,54.29a49.957,49.957,0,0,0-.612,7.133L5.8,61.412l0,1.339.673.013-.672.1.017.827.672-.013-.67.126.008.255.674.015-.67.125.026.63,0,.071.682.057-.669.1.04.715c0,.025,0,.044,0,.044v-.007l.287,3.15.674-.032-.66.149.024.2h0l.172,1.268h0l.035.269h0l.042.264H6.5l.033.067.219-.107.405-.064-.646.223.07.412h0l.041.257h0l.051.309h0l.1.557h0l.058.3-.006,0,.047.85H7l.055.21.653-.161-.629.269.2.9q.22.937.47,1.862a56.383,56.383,0,0,0,3.206,8.831l.612-.284-.335.27h-.214l.03.147-.022.018.183.39.045.222.2.2.254-.253.268-.13-.541.428.288.584v.515h.259l.572,1.083.01.021.1.152h0l.018.044,0,0,.09.168.126.723h.279l.411.705V90.8l.979,1.586h0l.585.9h0l.156.239.553-.384-.486.484q.31.462.631.917l.387.552,5.6-3.93a49.79,49.79,0,0,0,4.6,5.486l-4.848,4.823.476.479c1.066,1.073,2.186,2.112,3.335,3.093l.259.222.45-.5-.365.573,1.03.846v0l2.013,1.544c.033.026.082.06.082.052l.34.256.024.018.35.247.4-.542-.271.541-.047.047.225.168.009,0,.814.554a.558.558,0,0,0,.078.053l.649.427a.432.432,0,0,0,.044.03l.561.358a.087.087,0,0,0,.021.014l.024.014h0l.162.1v0l.769.468v0l.253.155h0l.145.086v0l.878.512.008,0a.841.841,0,0,0,.094.055l.212.12,0-.005.03.01.006-.011.064.051,0,.008.886.489.072.03,0-.006.844.509.2.04h0l1.13.552,1.109.577,1.5.586a56.031,56.031,0,0,0,11.766,3.429l.663.117L54.2,111.1a49.764,49.764,0,0,0,7.131.627l-.024,6.831.969.012,1.171-.014h.1l1.312-.051a.975.975,0,0,0,.109,0l.254-.013a.6.6,0,0,0,.09-.006l.839-.052.068,0,.658-.061h0l2.471-.258v-.006l.034-.011-.1-.652.121.428v.231l.058,0,.019,0,.078-.018h0l.343-.042h.06l.31-.06h.067l.073-.015.046.024.886-.157.22-.066.008.017.579-.1a55.875,55.875,0,0,0,17.828-6.436l.164-.094-.334-.584.451.518.353-.205h0l.1-.053.045,0,.078-.077-.006-.01.029-.029-.044-.045.079-.019.036.045,2.023-1.258,0,0,.557-.363,0,0,.067-.045a.963.963,0,0,0,.121-.076l-.338-.584.443.492,0,.01h0l0,0,1.216-.825-3.928-5.618a49.776,49.776,0,0,0,5.495-4.586l4.815,4.857.479-.475a56.391,56.391,0,0,0,10.9-15.123c.118-.242.236-.483.387-.81l.638-1.389-.023-.009.056-.082h.007l.127-.149v-.121l.2-.339.139-.476,0,0,.161-.233.05-.268.111-.132.418-1.238h0l.033-.087-.009,0,.115-.286h0l.01-.031-.021-.006.135-.136.4-1.335-.636-.222.672.108.279-.692.734-2.741c.37-1.416.686-2.87.942-4.319l.118-.662-6.731-1.2a50.03,50.03,0,0,0,.639-7.129l6.844.035-.337-7.166-.129,0-.022-.022-.524.033.66-.128-.158-1.548-.031-.029v-.024L117.69,52.2a55.773,55.773,0,0,0-9.207-22.214l-.385-.553-5.613,3.91a49.988,49.988,0,0,0-4.576-5.5l4.866-4.807-.473-.479A56.55,56.55,0,0,0,78.618,8.228l-1.79-.512a.5.5,0,0,0-.053-.011L76.753,7.7l-.55-.145a.89.89,0,0,0-.087-.024l-1.265-.306q-1.311-.3-2.645-.541l-.663-.118L70.336,13.3a49.831,49.831,0,0,0-7.479-.663V5.8Z" transform="translate(-5.798 -5.797)" fill="#19538d"/>
    </clipPath>
    <clipPath id="clip-path-11">
      <rect id="Rectángulo_467129" data-name="Rectángulo 467129" width="68.16" height="68.161" fill="#fff"/>
    </clipPath>
  </defs>
  <g id="Grupo_1189554" data-name="Grupo 1189554" transform="translate(-1273.977 -7094.898)">
    <g id="Grupo_1180190" data-name="Grupo 1180190" transform="translate(1273.977 7094.898)">
      <g id="Grupo_1180171" data-name="Grupo 1180171" transform="translate(0 0)">
        <g id="Grupo_1180170" data-name="Grupo 1180170" clip-path="url(#clip-path)">
          <path id="Trazado_1031398" data-name="Trazado 1031398" d="M.273.273H181.292V181.291H.272Z" transform="translate(-64.385 64) rotate(-45)" fill="#19538d"/>
        </g>
      </g>
      <g id="Grupo_1180173" data-name="Grupo 1180173" transform="translate(37.039 112.569)">
        <g id="Grupo_1180172" data-name="Grupo 1180172" clip-path="url(#clip-path-2)">
          <rect id="Rectángulo_458951" data-name="Rectángulo 458951" width="0.007" height="0.007" transform="translate(-0.001 0.001) rotate(-45)" fill="#19538d"/>
        </g>
      </g>
      <g id="Grupo_1180175" data-name="Grupo 1180175" transform="translate(18.244 32.762)">
        <g id="Grupo_1180174" data-name="Grupo 1180174" clip-path="url(#clip-path-3)">
          <rect id="Rectángulo_458952" data-name="Rectángulo 458952" width="0.174" height="0.174" transform="matrix(0.707, -0.707, 0.707, 0.707, -0.07, 0.07)" fill="#19538d"/>
        </g>
      </g>
      <g id="Grupo_1180177" data-name="Grupo 1180177" transform="translate(7.797 68.279)">
        <g id="Grupo_1180176" data-name="Grupo 1180176" clip-path="url(#clip-path-4)">
          <rect id="Rectángulo_458953" data-name="Rectángulo 458953" width="0.044" height="0.044" transform="translate(-0.028 0.028) rotate(-45.002)" fill="#19538d"/>
        </g>
      </g>
      <g id="Grupo_1180179" data-name="Grupo 1180179" transform="translate(120.303 61.094)">
        <g id="Grupo_1180178" data-name="Grupo 1180178" clip-path="url(#clip-path-5)">
          <path id="Trazado_1031310" data-name="Trazado 1031310" d="M0,0l.02,0,0,.02L0,.023Z" transform="translate(-0.015 0.015) rotate(-45.009)" fill="#19538d"/>
        </g>
      </g>
      <g id="Grupo_1180181" data-name="Grupo 1180181" transform="translate(11.822 48.237)">
        <g id="Grupo_1180180" data-name="Grupo 1180180" clip-path="url(#clip-path-6)">
          <rect id="Rectángulo_458955" data-name="Rectángulo 458955" width="0.042" height="0.042" transform="translate(-0.023 0.023) rotate(-44.999)" fill="#19538d"/>
        </g>
      </g>
      <g id="Grupo_1180183" data-name="Grupo 1180183" transform="translate(79.133 11.622)">
        <g id="Grupo_1180182" data-name="Grupo 1180182" clip-path="url(#clip-path-7)">
          <rect id="Rectángulo_458956" data-name="Rectángulo 458956" width="0.039" height="0.039" transform="matrix(0.707, -0.707, 0.707, 0.707, -0.007, 0.007)" fill="#19538d"/>
        </g>
      </g>
      <g id="Grupo_1180185" data-name="Grupo 1180185" transform="translate(22.961 29.606)">
        <g id="Grupo_1180184" data-name="Grupo 1180184" clip-path="url(#clip-path-8)">
          <rect id="Rectángulo_458957" data-name="Rectángulo 458957" width="0.003" height="0.003" transform="matrix(0.706, -0.708, 0.708, 0.706, -0.001, 0.001)" fill="#19538d"/>
        </g>
      </g>
      <g id="Grupo_1180187" data-name="Grupo 1180187" transform="translate(19.225 31.58)">
        <g id="Grupo_1180186" data-name="Grupo 1180186" clip-path="url(#clip-path-9)">
          <rect id="Rectángulo_458958" data-name="Rectángulo 458958" width="0.129" height="0.129" transform="translate(-0.053 0.053) rotate(-45)" fill="#19538d"/>
        </g>
      </g>
      <g id="Grupo_1180189" data-name="Grupo 1180189" transform="translate(7.614 7.613)">
        <g id="Grupo_1180188" data-name="Grupo 1180188" clip-path="url(#clip-path-10)">
          <path id="Trazado_1031399" data-name="Trazado 1031399" d="M.273.273H159.759V159.759H.272Z" transform="translate(-56.773 56.388) rotate(-45)" fill="#19538d"/>
        </g>
      </g>
    </g>
    <g id="Grupo_1189555" data-name="Grupo 1189555" transform="translate(1303.643 7122.598)">
      <g id="Grupo_1180978" data-name="Grupo 1180978" clip-path="url(#clip-path-11)">
        <path id="Trazado_1033133" data-name="Trazado 1033133" d="M95.045,131.867l-11.252-.086a2.147,2.147,0,0,1-1.91-2.076l-.043-4.64a.974.974,0,0,0-1.083.338l-6.163,6.174a1.082,1.082,0,0,1-1.216.126,1.251,1.251,0,0,1-.605-1.167l-.043-5.568c-1.48.337-3.308-.36-3.314-1.948l-.046-13.969a2.167,2.167,0,0,1,1.864-2.132l21.061-.03A2.1,2.1,0,0,1,94.32,108.9l.075,4.777,10.267,0a2.161,2.161,0,0,1,2.181,2.179l-.026,13.84c0,1.633-1.738,2.477-3.334,2.043l-.047,5.631a1.146,1.146,0,0,1-.553,1.106,1.211,1.211,0,0,1-1.357-.136Zm-13.229-9.218.035-6.79a2.233,2.233,0,0,1,2.344-2.207l7.884.019,0-4.55-20.435,0,0,13.566,2.3.045a1.173,1.173,0,0,1,1.117,1.2l.03,3.911,4.848-4.778c.471-.464,1.281-.3,1.884-.421m19.429,7.8c.017-.582.651-.867,1.09-.886l2.233-.023.009-13.619-20.409,0-.009,13.619,11.767.051,5.2,5.11Z" transform="translate(-54.597 -84.126)" fill="#fff"/>
        <path id="Trazado_1033134" data-name="Trazado 1033134" d="M213.949,241.326a1.245,1.245,0,0,1-1.4-1.285l0-1.526-1.564.589a1.131,1.131,0,0,1-1.452-.616,1.165,1.165,0,0,1,.507-1.415l2.517-1.113a5.772,5.772,0,0,1,3.891-5.723,6.835,6.835,0,0,1,2.16-7.916,6.674,6.674,0,0,1,8.284-.045l.927-1.7a1.1,1.1,0,0,1,1.5-.424,1.12,1.12,0,0,1,.532,1.377l-1.32,2.558a6.689,6.689,0,0,1,.576,6.157,5.605,5.605,0,0,1,3.877,5.307L233,240.04a1.218,1.218,0,0,1-1.29,1.281Zm7.741-18.029a4.483,4.483,0,0,0-3.253,5.652,4.516,4.516,0,0,0,8.717-2.35,4.5,4.5,0,0,0-5.464-3.3m9.034,12.51c.032-1.683-1.347-3.539-2.908-3.445a6.869,6.869,0,0,1-10.052-.056,3.157,3.157,0,0,0-2.9,3.042v3.67l15.8,0Z" transform="translate(-164.838 -173.164)" fill="#fff"/>
        <path id="Trazado_1033135" data-name="Trazado 1033135" d="M20.514,239.956a1.25,1.25,0,0,1-1.3,1.375H1.343a1.164,1.164,0,0,1-1.264-1.081l-.016-4.472a5.719,5.719,0,0,1,3.885-5.53,6.682,6.682,0,0,1,.578-6.149,26.215,26.215,0,0,1-1.32-2.558,1.115,1.115,0,0,1,.529-1.376,1.155,1.155,0,0,1,1.588.557l.839,1.562a6.686,6.686,0,0,1,8.289.049,6.833,6.833,0,0,1,2.159,7.916,5.77,5.77,0,0,1,3.892,5.73l2.516,1.1a1.166,1.166,0,0,1,.509,1.416,1.132,1.132,0,0,1-1.452.616l-1.564-.591ZM9.2,223.309a4.508,4.508,0,1,0,5.47,3.272,4.51,4.51,0,0,0-5.47-3.272m8.973,11.934a3.1,3.1,0,0,0-2.869-2.926,6.882,6.882,0,0,1-10.062.058c-1.565-.089-2.931,1.76-2.905,3.368l.052,3.288h15.8Z" transform="translate(-0.049 -173.175)" fill="#fff"/>
        <path id="Trazado_1033136" data-name="Trazado 1033136" d="M239.144,20.448,225.1,20.434a1.183,1.183,0,0,1-1.075-1.254l.016-4.5a5.677,5.677,0,0,1,3.831-5.308c-.249-.719-.159-1.633-.6-2.155-.791-.929-3.249-1.323-2.659-2.72a1.166,1.166,0,0,1,1.686-.577l1.5.763a6.809,6.809,0,1,1,12.783,4.676,5.639,5.639,0,0,1,3.874,5.325l.019,4.481a1.209,1.209,0,0,1-1.271,1.275l-1.526,0,.582,1.567a1.135,1.135,0,0,1-.611,1.458,1.08,1.08,0,0,1-1.414-.479Zm-6.178-17.96a4.476,4.476,0,0,0-3,5.753,4.515,4.515,0,0,0,8.619-2.687,4.471,4.471,0,0,0-5.615-3.066m9.171,11.8c0-1.378-1.584-2.963-2.848-2.773a6.957,6.957,0,0,1-10.124-.117,3.343,3.343,0,0,0-2.852,3.287l.014,3.487,15.818-.011Z" transform="translate(-176.311 0)" fill="#fff"/>
        <path id="Trazado_1033137" data-name="Trazado 1033137" d="M19.268,20.436l-13.9.011L4.247,22.991a1.047,1.047,0,0,1-1.261.536,1.085,1.085,0,0,1-.8-1.345l.61-1.751A10.942,10.942,0,0,1,.885,20.4a1.238,1.238,0,0,1-.874-1.429V14.9A5.744,5.744,0,0,1,3.9,9.363,6.809,6.809,0,1,1,16.685,4.7l1.669-.831a1.085,1.085,0,0,1,1.45.5,1.063,1.063,0,0,1-.376,1.453L17.208,7.206c-.438.548-.349,1.448-.6,2.172A5.781,5.781,0,0,1,20.451,14.9l0,4.279a1.179,1.179,0,0,1-1.187,1.256M8.95,2.488a4.5,4.5,0,1,0,5.617,3.043A4.481,4.481,0,0,0,8.95,2.488m9.172,11.875a3.03,3.03,0,0,0-2.9-2.9,6.8,6.8,0,0,1-9.991,0A3.262,3.262,0,0,0,2.291,14.9l.048,3.266,15.813.009Z" transform="translate(0.001 -0.001)" fill="#fff"/>
        <path id="Trazado_1033138" data-name="Trazado 1033138" d="M309.52,149.7c-.126.924-.6,1.344-1.391,1.254-.674-.077-1.019-.713-.888-1.514a34.709,34.709,0,0,0,.313-7.926c-.052-.807.25-1.428,1.013-1.474.724-.043,1.18.432,1.248,1.237a37.708,37.708,0,0,1-.295,8.422" transform="translate(-241.787 -110.215)" fill="#fff"/>
        <path id="Trazado_1033139" data-name="Trazado 1033139" d="M2.8,149.481a1.169,1.169,0,0,1-.72,1.374,1.123,1.123,0,0,1-1.448-.75,33.188,33.188,0,0,1-.391-9.064,1.111,1.111,0,0,1,1.216-1.061c.8.059,1.072.672,1.02,1.486a34.9,34.9,0,0,0,.323,8.015" transform="translate(-0.074 -110.166)" fill="#fff"/>
        <path id="Trazado_1033140" data-name="Trazado 1033140" d="M145.469,310.47a29.873,29.873,0,0,1-8.447.037,1.109,1.109,0,0,1,.178-2.2,43.676,43.676,0,0,0,7.843-.007,1.107,1.107,0,0,1,1.189.782,1.088,1.088,0,0,1-.763,1.388" transform="translate(-107.124 -242.637)" fill="#fff"/>
        <path id="Trazado_1033141" data-name="Trazado 1033141" d="M119.232,1.751c.159,1.744-2.933,1.179-6.939,2.4a1.13,1.13,0,0,1-1.448-.715,1.146,1.146,0,0,1,.782-1.449A34.044,34.044,0,0,1,117.872.755a1.135,1.135,0,0,1,1.36,1" transform="translate(-87.202 -0.586)" fill="#fff"/>
        <path id="Trazado_1033142" data-name="Trazado 1033142" d="M176.907,4.19a44.024,44.024,0,0,0-6.113-1.178,1.141,1.141,0,0,1-1.077-1.254,1.12,1.12,0,0,1,1.347-1A34.107,34.107,0,0,1,177.3,2a1.163,1.163,0,0,1,.844,1.264,1.061,1.061,0,0,1-1.241.93" transform="translate(-133.569 -0.591)" fill="#fff"/>
        <path id="Trazado_1033143" data-name="Trazado 1033143" d="M157.521,167.571l-6.9.048a1.149,1.149,0,0,1-1.19-1.148,1.125,1.125,0,0,1,1.239-1.123l6.687.015a1.1,1.1,0,0,1,1.117.922,1.082,1.082,0,0,1-.95,1.286" transform="translate(-117.605 -130.135)" fill="#fff"/>
        <path id="Trazado_1033144" data-name="Trazado 1033144" d="M189.527,189.079l-7.114-.03c-.562,0-.945-.624-.981-1.04a1.053,1.053,0,0,1,.976-1.153l6.82-.024a1.14,1.14,0,0,1,1.234.829,1.2,1.2,0,0,1-.935,1.418" transform="translate(-142.79 -147.043)" fill="#fff"/>
        <path id="Trazado_1033145" data-name="Trazado 1033145" d="M206.314,167.594l-2.427.036a1.125,1.125,0,1,1,.037-2.25l2.226.012a1.1,1.1,0,0,1,.164,2.2" transform="translate(-159.581 -130.16)" fill="#fff"/>
        <path id="Trazado_1033146" data-name="Trazado 1033146" d="M153.042,188.966c-1.968.326-3.738.12-3.623-1.144a1.133,1.133,0,0,1,1.182-1.027l2.148-.008a1.145,1.145,0,0,1,1.164.883,1.1,1.1,0,0,1-.87,1.3" transform="translate(-117.593 -147.008)" fill="#fff"/>
      </g>
    </g>
  </g>
</svg>
